<?xml version="1.0" encoding="iso-8859-1"?>
<!-- Generator: Adobe Illustrator 19.0.0, SVG Export Plug-In . SVG Version: 6.00 Build 0)  -->
<svg version="1.1" id="Layer_1" xmlns="http://www.w3.org/2000/svg" xmlns:xlink="http://www.w3.org/1999/xlink" x="0px" y="0px"
	 viewBox="0 0 512.001 512.001" style="enable-background:new 0 0 512.001 512.001;" xml:space="preserve">
<path style="fill:#507C5C;" d="M327.393,512c-2.389,0-4.779-0.617-6.924-1.854l-64.483-37.198l-64.483,37.2
	c-4.412,2.543-9.865,2.465-14.2-0.209c-4.335-2.673-6.854-7.509-6.56-12.593l12.332-213.415c0.441-7.641,7.001-13.473,14.633-13.035
	c7.641,0.442,13.476,6.994,13.035,14.633l-10.852,187.784l49.168-28.364c4.286-2.472,9.563-2.472,13.849,0l49.168,28.364
	l-2.09-36.162c-0.441-7.641,5.395-14.191,13.036-14.633c7.617-0.424,14.193,5.395,14.633,13.036l3.571,61.794
	c0.294,5.084-2.225,9.92-6.56,12.593C332.441,511.311,329.917,512,327.393,512z"/>
<polygon style="fill:#CFF09E;" points="255.985,131.829 314.332,205.191 398.961,205.191 255.985,13.857 113.009,205.191 
	197.639,205.191 "/>
<path style="fill:#507C5C;" d="M409.599,196.277L267.086,5.562C264.47,2.062,260.355,0,255.985,0c-4.371,0-8.485,2.062-11.101,5.562
	L101.909,196.896c-3.14,4.202-3.638,9.815-1.289,14.503c2.35,4.688,7.145,7.649,12.388,7.649h84.63
	c4.224,0,8.216-1.926,10.846-5.231l47.501-59.726l39.813,50.059l10.26,164.98c0.425,7.369,6.534,13.059,13.821,13.059
	c0.269,0,0.54-0.008,0.812-0.024c7.641-0.442,13.476-6.992,13.035-14.633l-9.233-148.484h74.469c0.01,0,0.019,0,0.028,0
	c7.653,0,13.857-6.204,13.857-13.857C412.846,201.796,411.627,198.686,409.599,196.277z M321.015,191.334l-54.186-68.131
	c-2.629-3.305-6.622-5.231-10.846-5.231c-4.224,0-8.216,1.926-10.846,5.231l-54.186,68.131h-50.292L255.982,37.006l115.323,154.328
	H321.015z"/>
<g>
</g>
<g>
</g>
<g>
</g>
<g>
</g>
<g>
</g>
<g>
</g>
<g>
</g>
<g>
</g>
<g>
</g>
<g>
</g>
<g>
</g>
<g>
</g>
<g>
</g>
<g>
</g>
<g>
</g>
</svg>
